 <svg version="1.0" xmlns="http://www.w3.org/2000/svg" width="700.000000pt" height="394.000000pt" viewBox="0 0 700.000000 394.000000" preserveAspectRatio="xMidYMid meet">
<metadata>
Created by potrace 1.12, written by Peter Selinger 2001-2015
</metadata>
<g transform="translate(0.000000,394.000000) scale(0.100000,-0.100000)" fill="#000000" stroke="none">
<path d="M661 3302 c-5 -10 -21 -24 -35 -32 -17 -9 -26 -22 -26 -38 0 -24 1
-24 25 -8 13 9 27 16 30 16 3 0 5 -40 5 -90 0 -89 0 -90 25 -90 l25 0 0 130
c0 123 -1 130 -20 130 -10 0 -24 -8 -29 -18z"></path>
<path d="M922 3303 c-29 -25 -33 -57 -6 -61 15 -2 23 4 27 18 4 17 12 21 34
18 48 -5 43 -42 -15 -102 -49 -50 -72 -84 -72 -105 0 -7 32 -11 85 -11 84 0
85 0 85 25 0 23 -3 25 -51 25 l-52 0 46 49 c57 61 67 93 40 129 -26 34 -89 42
-121 15z"></path>
<path d="M1221 3294 c-11 -15 -18 -30 -15 -35 8 -14 30 -11 44 6 17 20 49 19
57 -2 4 -11 -3 -23 -20 -37 -33 -26 -34 -43 -6 -48 30 -4 47 -33 33 -55 -17
-27 -45 -28 -64 -2 -19 24 -50 21 -50 -5 0 -22 49 -56 82 -56 44 0 92 51 83
88 -3 15 -16 35 -28 44 -12 10 -17 18 -11 18 17 0 32 43 23 67 -18 49 -95 59
-128 17z"></path>
<path d="M1556 3243 c-34 -48 -55 -89 -56 -105 0 -27 2 -28 50 -28 47 0 50 -2
50 -25 0 -20 5 -25 25 -25 20 0 25 5 25 25 0 16 6 25 15 25 8 0 15 9 15 20 0
11 -7 20 -15 20 -12 0 -15 16 -15 85 0 78 -2 85 -20 85 -13 0 -38 -26 -74 -77z
m44 -48 c0 -40 -2 -45 -23 -45 -13 0 -26 3 -30 6 -4 5 42 82 51 84 1 0 2 -20
2 -45z"></path>
<path d="M1831 3254 c-14 -76 -5 -98 29 -76 31 19 59 14 71 -12 23 -50 -35
-92 -63 -46 -12 19 -38 26 -51 14 -9 -10 20 -61 38 -68 35 -13 76 -6 100 19
54 53 16 153 -54 143 -32 -5 -35 -1 -25 26 4 11 19 16 50 16 40 0 44 2 44 25
0 24 -2 25 -63 25 l-64 0 -12 -66z"></path>
<path d="M2153 3296 c-25 -21 -28 -32 -31 -98 -4 -69 -2 -76 23 -106 46 -55
123 -37 141 33 14 56 -45 118 -91 97 -23 -10 -25 -9 -25 11 0 42 41 63 64 31
7 -9 18 -12 29 -8 22 8 22 19 -3 44 -27 27 -73 25 -107 -4z m76 -120 c18 -21
10 -70 -12 -74 -41 -8 -66 56 -29 77 23 14 28 13 41 -3z"></path>
<path d="M2420 3295 c0 -24 3 -25 56 -25 31 0 54 -3 52 -7 -40 -78 -61 -132
-65 -164 -5 -34 -3 -39 14 -39 16 0 23 12 37 68 9 37 30 86 46 110 17 23 30
51 30 62 0 18 -7 20 -85 20 -84 0 -85 0 -85 -25z"></path>
<path d="M2757 3302 c-21 -23 -22 -78 -2 -90 14 -7 13 -11 -5 -27 -12 -11 -20
-31 -20 -51 0 -63 89 -98 141 -55 28 22 31 81 7 108 -14 16 -15 20 -2 37 19
27 18 52 -6 76 -26 26 -90 27 -113 2z m81 -49 c-3 -32 -44 -46 -54 -19 -10 26
4 46 31 46 23 0 26 -4 23 -27z m8 -98 c9 -36 -2 -55 -30 -55 -32 0 -51 32 -36
60 16 30 58 26 66 -5z"></path>
<path d="M3063 3305 c-27 -19 -39 -75 -24 -104 20 -37 58 -56 86 -43 23 10 25
9 25 -11 0 -43 -42 -62 -65 -30 -13 17 -45 12 -45 -7 0 -20 41 -50 69 -50 17
0 42 10 58 24 25 21 28 32 31 98 4 69 2 76 -23 106 -30 36 -75 43 -112 17z
m75 -37 c32 -32 -2 -87 -40 -67 -18 10 -25 58 -11 72 10 11 38 8 51 -5z"></path>
<path d="M3394 3282 c-31 -27 -40 -42 -35 -55 6 -17 8 -17 34 3 l27 21 0 -95
c0 -96 0 -96 25 -96 l25 0 0 130 c0 150 -5 156 -76 92z"></path>
<path d="M3579 3301 c-21 -17 -24 -29 -27 -98 -3 -88 9 -123 49 -137 39 -13
77 0 94 34 19 37 20 142 0 179 -23 46 -75 55 -116 22z m75 -37 c9 -24 7 -137
-3 -152 -5 -8 -17 -12 -27 -10 -29 5 -39 99 -19 166 6 17 42 15 49 -4z"></path>
<path d="M3907 3285 c-27 -23 -38 -40 -35 -55 l3 -22 28 22 27 21 0 -95 c0
-96 0 -96 25 -96 l25 0 0 130 c0 149 -5 156 -73 95z"></path>
<path d="M4109 3302 c-9 -11 -26 -26 -38 -34 -15 -10 -21 -24 -19 -38 l3 -22
28 22 27 21 0 -95 c0 -96 0 -96 25 -96 l25 0 0 130 c0 118 -2 130 -18 130 -10
0 -25 -8 -33 -18z"></path>
<path d="M4388 3280 c-56 -54 -51 -94 6 -49 l26 20 0 -96 c0 -94 1 -96 23 -93
21 3 22 7 25 131 3 127 3 127 -20 126 -13 -1 -40 -19 -60 -39z"></path>
<path d="M4570 3300 c-25 -25 -26 -60 -2 -60 9 0 23 9 30 21 19 30 56 22 60
-14 3 -22 -5 -36 -35 -64 -46 -44 -83 -92 -83 -110 0 -10 22 -13 85 -13 84 0
85 0 85 25 0 23 -4 25 -45 25 -25 0 -45 3 -45 6 0 4 20 29 45 55 33 35 45 56
45 79 0 43 -31 70 -80 70 -27 0 -47 -7 -60 -20z"></path>
<path d="M4903 3282 c-60 -52 -59 -98 1 -51 l26 20 0 -95 c0 -96 0 -96 25 -96
l25 0 0 130 c0 151 -5 156 -77 92z"></path>
<path d="M5080 3300 c-25 -25 -26 -50 -1 -50 10 0 24 7 31 15 15 18 32 19 48
3 14 -14 -2 -48 -23 -48 -8 0 -15 -9 -15 -20 0 -13 7 -20 20 -20 27 0 44 -34
30 -60 -6 -11 -20 -20 -30 -20 -11 0 -25 9 -32 20 -15 24 -36 26 -45 4 -9 -24
35 -64 72 -64 72 0 111 76 65 125 -18 20 -19 23 -5 35 40 33 0 100 -60 100
-22 0 -43 -8 -55 -20z"></path>
<path d="M5413 3282 c-60 -52 -59 -98 1 -51 l26 20 0 -95 c0 -96 0 -96 25 -96
l25 0 0 130 c0 151 -5 156 -77 92z"></path>
<path d="M5616 3239 c-31 -44 -56 -91 -56 -105 0 -22 4 -24 49 -24 44 0 50 -3
53 -22 2 -15 11 -24 26 -26 18 -3 22 1 22 22 0 16 6 26 15 26 8 0 15 9 15 19
0 10 -7 21 -15 25 -12 4 -15 24 -15 86 0 72 -2 80 -19 80 -13 0 -38 -27 -75
-81z m44 -44 c0 -41 -2 -45 -25 -45 -14 0 -25 5 -25 10 0 9 42 80 48 80 1 0 2
-20 2 -45z"></path>
<path d="M5927 3285 c-27 -23 -38 -40 -35 -55 l3 -22 28 22 27 21 0 -95 c0
-96 0 -96 25 -96 l25 0 0 130 c0 149 -5 156 -73 95z"></path>
<path d="M6106 3298 c-28 -130 -25 -137 32 -116 36 14 62 -2 62 -36 0 -46 -47
-62 -72 -24 -15 22 -48 20 -48 -2 0 -25 49 -60 84 -60 42 0 86 46 86 91 0 43
-42 82 -81 77 -25 -4 -29 -1 -29 19 0 21 4 23 50 23 47 0 50 2 50 25 0 24 -2
25 -65 25 -59 0 -65 -2 -69 -22z"></path>
<path d="M662 2890 c-7 -12 -24 -26 -37 -32 -16 -7 -25 -19 -25 -35 0 -27 3
-28 35 -7 l25 16 0 -91 c0 -90 0 -91 25 -91 l25 0 0 130 c0 117 -2 130 -18
130 -9 0 -23 -9 -30 -20z"></path>
<path d="M825 2886 c-44 -44 -47 -166 -4 -212 51 -54 139 -16 139 60 0 49 -33
79 -81 74 -32 -3 -39 0 -39 14 0 37 54 64 66 33 9 -22 44 -19 44 4 0 49 -85
67 -125 27z m85 -136 c14 -26 -3 -60 -31 -60 -27 0 -47 44 -29 65 18 21 47 19
60 -5z"></path>
<path d="M1172 2890 c-7 -12 -24 -26 -37 -32 -16 -7 -25 -19 -25 -35 0 -27 3
-28 35 -7 l25 16 0 -91 c0 -90 0 -91 25 -91 l25 0 0 130 c0 117 -2 130 -18
130 -9 0 -23 -9 -30 -20z"></path>
<path d="M1300 2885 c0 -24 3 -25 56 -25 31 0 54 -3 52 -7 -55 -112 -68 -143
-68 -170 0 -26 4 -33 19 -33 14 0 20 10 25 43 8 50 46 136 69 156 10 7 17 24
17 37 0 23 -2 24 -85 24 -84 0 -85 0 -85 -25z"></path>
<path d="M1682 2890 c-7 -12 -24 -26 -37 -32 -16 -7 -25 -19 -25 -35 0 -27 7
-28 34 -8 11 8 22 15 25 15 3 0 5 -40 3 -90 l-3 -90 25 0 26 0 0 130 c0 117
-2 130 -18 130 -9 0 -23 -9 -30 -20z"></path>
<path d="M1842 2894 c-27 -19 -31 -78 -6 -92 15 -8 15 -11 -5 -31 -27 -27 -27
-61 0 -95 16 -21 29 -26 64 -26 35 0 48 5 64 26 27 34 27 68 0 95 -19 19 -19
22 -5 38 55 60 -42 134 -112 85z m82 -39 c9 -25 -5 -45 -30 -45 -14 0 -27 7
-30 15 -10 25 4 45 30 45 13 0 26 -7 30 -15z m-4 -99 c28 -34 -11 -94 -44 -67
-16 13 -22 62 -9 74 11 12 40 8 53 -7z"></path>
<path d="M2192 2890 c-7 -12 -24 -26 -37 -32 -16 -7 -25 -19 -25 -35 0 -27 7
-28 34 -8 11 8 23 15 28 15 4 0 8 -40 8 -90 0 -83 1 -90 20 -90 19 0 20 7 20
130 0 117 -2 130 -18 130 -9 0 -23 -9 -30 -20z"></path>
<path d="M2345 2885 c-17 -16 -25 -35 -25 -60 0 -25 8 -44 25 -60 26 -27 46
-31 76 -15 15 9 19 7 19 -5 0 -42 -47 -74 -65 -45 -3 6 -17 10 -31 10 -22 0
-24 -2 -13 -22 16 -30 28 -38 62 -38 61 0 97 49 97 130 0 109 -82 169 -145
105z m71 -23 c21 -13 25 -49 9 -66 -20 -20 -29 -20 -49 0 -19 18 -20 28 -6 55
11 20 27 24 46 11z"></path>
<path d="M2655 2885 c-14 -13 -25 -31 -25 -40 0 -22 37 -19 50 5 6 11 19 20
30 20 25 0 44 -34 31 -57 -5 -10 -28 -36 -51 -58 -36 -35 -70 -83 -70 -100 0
-3 38 -5 85 -5 84 0 85 0 85 25 0 23 -4 25 -46 25 l-46 0 46 51 c45 50 59 94
38 125 -26 39 -93 44 -127 9z"></path>
<path d="M2877 2899 c-54 -31 -63 -177 -15 -228 19 -21 71 -28 95 -13 18 12
43 77 43 114 0 104 -59 164 -123 127z m63 -48 c5 -11 10 -43 10 -71 0 -57 -13
-90 -35 -90 -22 0 -35 33 -35 90 0 57 13 90 35 90 8 0 19 -9 25 -19z"></path>
<path d="M3166 2887 c-33 -33 -34 -57 -2 -57 15 0 26 7 29 20 9 34 67 19 67
-18 0 -7 -24 -39 -54 -70 -48 -51 -76 -90 -76 -106 0 -3 38 -6 85 -6 84 0 85
0 85 25 0 23 -4 25 -46 25 l-46 0 46 51 c71 78 62 145 -21 156 -35 5 -45 2
-67 -20z"></path>
<path d="M3395 2873 c-51 -48 -59 -96 -9 -58 10 8 22 15 27 15 4 0 7 -40 7
-90 0 -89 0 -90 25 -90 l25 0 0 130 c0 150 -5 157 -75 93z"></path>
<path d="M3675 2885 c-32 -31 -32 -55 -1 -55 15 0 26 7 29 20 9 34 67 19 67
-18 0 -7 -24 -39 -54 -71 -30 -31 -59 -69 -65 -84 l-11 -27 85 0 c84 0 85 0
85 25 0 23 -4 25 -46 25 l-47 0 47 50 c37 39 46 56 46 85 0 71 -83 103 -135
50z"></path>
<path d="M3897 2903 c-19 -5 -50 -57 -40 -67 12 -12 35 -6 52 15 12 16 23 20
39 15 37 -12 28 -53 -20 -98 -46 -42 -78 -86 -78 -105 0 -10 24 -13 85 -13 84
0 85 0 85 25 0 23 -3 25 -52 25 l-52 0 47 48 c60 61 70 100 34 136 -25 25 -55
31 -100 19z"></path>
<path d="M4185 2885 c-32 -31 -32 -55 -1 -55 15 0 26 7 29 20 9 34 67 19 67
-18 0 -7 -24 -39 -54 -71 -30 -31 -59 -69 -65 -84 l-11 -27 85 0 c84 0 85 0
85 25 0 23 -4 25 -46 25 l-47 0 47 50 c37 39 46 56 46 85 0 71 -83 103 -135
50z"></path>
<path d="M4390 2890 c-39 -39 -10 -71 31 -34 10 9 25 14 34 11 22 -9 19 -48
-5 -54 -28 -7 -26 -41 3 -45 18 -2 22 -9 22 -38 0 -31 -3 -35 -27 -38 -18 -2
-30 3 -37 16 -11 20 -51 20 -51 0 0 -23 50 -58 85 -58 71 0 115 88 63 124 -20
15 -21 16 -5 34 24 27 21 57 -9 81 -34 27 -78 27 -104 1z"></path>
<path d="M4695 2885 c-32 -31 -32 -55 -1 -55 15 0 26 7 29 20 9 34 67 19 67
-18 0 -7 -24 -39 -54 -71 -30 -31 -59 -69 -65 -84 l-11 -27 85 0 c84 0 85 0
85 25 0 23 -4 25 -46 25 l-47 0 47 50 c39 41 46 55 46 89 0 30 -6 44 -22 55
-34 24 -85 20 -113 -9z"></path>
<path d="M4921 2824 c-78 -112 -79 -124 -6 -124 52 0 55 -1 55 -25 0 -20 5
-25 25 -25 20 0 25 5 25 25 0 16 6 25 15 25 8 0 15 9 15 20 0 11 -7 20 -15 20
-11 0 -15 18 -17 82 -4 114 -18 115 -97 2z m46 -81 c-3 -2 -17 -3 -31 -1 l-25
3 27 42 27 43 3 -41 c2 -23 1 -43 -1 -46z"></path>
<path d="M5205 2885 c-33 -32 -32 -55 0 -55 15 0 25 6 25 14 0 20 38 30 55 16
25 -20 18 -37 -44 -104 -32 -36 -61 -74 -64 -86 -5 -19 -1 -20 79 -20 83 0 84
0 84 25 0 23 -4 25 -46 25 l-47 0 47 50 c39 41 46 55 46 89 0 30 -6 44 -22 55
-34 24 -85 20 -113 -9z"></path>
<path d="M5416 2898 c-14 -45 -23 -124 -15 -132 5 -6 19 -5 35 3 34 15 62 6
70 -25 12 -46 -43 -75 -67 -35 -14 21 -49 17 -49 -5 0 -27 39 -54 78 -54 80 0
117 96 57 147 -20 18 -36 23 -55 19 -24 -4 -27 -2 -22 20 4 21 9 24 51 24 43
0 48 2 46 23 -1 20 -7 22 -63 25 -45 2 -63 -1 -66 -10z"></path>
<path d="M5715 2885 c-33 -32 -32 -55 0 -55 15 0 25 6 25 14 0 20 38 30 55 16
25 -21 17 -40 -44 -105 -32 -34 -61 -72 -64 -84 -5 -20 -2 -21 85 -21 87 0 89
1 86 23 -2 18 -11 23 -51 27 l-48 5 37 35 c47 45 67 91 54 124 -19 51 -94 63
-135 21z"></path>
<path d="M5935 2887 c-50 -42 -53 -180 -5 -219 24 -20 71 -24 100 -8 23 12 39
59 33 93 -8 42 -36 61 -83 54 -38 -5 -40 -4 -34 16 14 45 48 63 60 32 7 -16
39 -20 48 -6 3 5 -4 20 -15 35 -26 33 -68 34 -104 3z m80 -137 c11 -36 -4 -62
-33 -58 -28 3 -40 32 -28 64 8 22 54 18 61 -6z"></path>
</g>
</svg>